<svg xmlns="http://www.w3.org/2000/svg" width="70" height="70" viewBox="0 0 70 70" fill="none">
  <path fill-rule="evenodd" clip-rule="evenodd" d="M27.3795 53.5225C29.6861 62.9801 38.2145 70 48.3823 70C60.3214 70 70 60.3214 70 48.3824C70 38.2145 62.9801 29.6861 53.5225 27.3795C53.5271 27.1751 53.5294 26.9702 53.5294 26.7647C53.5294 11.983 41.5464 -1.24374e-06 26.7647 -1.88987e-06C11.983 -2.53601e-06 -5.23792e-07 11.983 -1.16992e-06 26.7647C-1.81605e-06 41.5464 11.983 53.5294 26.7647 53.5294C26.9702 53.5294 27.1751 53.5271 27.3795 53.5225ZM31.5275 53.1069C33.5891 60.4768 40.3544 65.8823 48.3823 65.8823C58.0473 65.8823 65.8824 58.0473 65.8824 48.3824C65.8824 40.3544 60.4768 33.5891 53.1069 31.5275C52.5519 34.6173 51.4667 37.523 49.9488 40.1471L53.5294 40.1471C55.235 40.1471 56.6176 41.5297 56.6176 43.2353L56.6176 53.5294C56.6176 55.235 55.235 56.6176 53.5294 56.6176L43.2353 56.6176C41.5297 56.6176 40.1471 55.235 40.1471 53.5294L40.1471 49.9488C37.523 51.4667 34.6173 52.5519 31.5275 53.1069ZM44.2647 47.0162L44.2647 52.5L52.5 52.5L52.5 44.2647L47.0162 44.2647C46.1667 45.2469 45.2469 46.1667 44.2647 47.0162ZM26.7647 49.4118C14.2571 49.4118 4.11764 39.2723 4.11764 26.7647C4.11764 14.2571 14.2571 4.11764 26.7647 4.11765C39.2723 4.11765 49.4118 14.2571 49.4118 26.7647C49.4118 39.2723 39.2723 49.4118 26.7647 49.4118ZM37.6351 34.3566C36.8995 35.6306 35.5402 36.4154 34.0691 36.4154L18.0221 36.4154C16.551 36.4154 15.1917 35.6306 14.4561 34.3566C13.7206 33.0826 13.7206 31.513 14.4561 30.239L22.4796 16.3419C23.2152 15.0679 24.5745 14.2831 26.0456 14.2831C27.5167 14.2831 28.876 15.0679 29.6116 16.3419L37.6351 30.239C38.3706 31.513 38.3706 33.0826 37.6351 34.3566ZM34.0691 32.2978L26.0456 18.4007L18.0221 32.2978L34.0691 32.2978Z" fill="url(#paint0_linear_525_4332)"/>
  <defs>
    <linearGradient id="paint0_linear_525_4332" x1="70" y1="35" x2="-1.5299e-06" y2="35" gradientUnits="userSpaceOnUse">
      <stop stop-color="#3D8ABA"/>
      <stop offset="1" stop-color="#449F95"/>
    </linearGradient>
  </defs>
</svg>
