<svg xmlns="http://www.w3.org/2000/svg" width="70" height="70" viewBox="0 0 70 70" fill="none">
  <path fill-rule="evenodd" clip-rule="evenodd" d="M32.8394 15.9639L32.8377 15.9649L18.4498 24.2718C17.801 24.6463 17.4013 25.3386 17.4013 26.0878V43.9122C17.4013 44.6614 17.801 45.3537 18.4498 45.7283L19.4941 46.3312L19.4983 46.3336L33.8862 54.6405C34.535 55.015 35.3344 55.015 35.9832 54.6405L50.3711 46.3336L50.3759 46.3308L51.4196 45.7283C52.0684 45.3537 52.468 44.6614 52.468 43.9122V26.0878C52.468 25.3386 52.0684 24.6463 51.4196 24.2718L37.0317 15.9649L37.0299 15.9639L35.9832 15.3596C35.3344 14.985 34.535 14.985 33.8862 15.3596L32.8394 15.9639ZM38.5668 36.4916C38.5668 36.8662 38.3669 37.2124 38.0425 37.3997L35.4589 38.8913C35.1345 39.0786 34.7348 39.0786 34.4104 38.8913L31.8268 37.3997C31.5024 37.2124 31.3026 36.8662 31.3026 36.4916V33.5084C31.3026 33.1338 31.5024 32.7876 31.8268 32.6003L34.4104 31.1087C34.7348 30.9214 35.1345 30.9214 35.4589 31.1087L38.0425 32.6003C38.3669 32.7876 38.5668 33.1338 38.5668 33.5084V36.4916ZM37.0317 4.75586L60.0784 18.0619C61.376 18.8111 62.1754 20.1956 62.1754 21.694V48.306C62.1754 49.8044 61.376 51.1889 60.0784 51.9381L37.0317 65.2441C35.734 65.9933 34.1353 65.9933 32.8377 65.2441L9.79097 51.9381C8.49335 51.1889 7.69398 49.8044 7.69398 48.306V21.694C7.69398 20.1956 8.49335 18.8111 9.79097 18.0619L32.8377 4.75586C34.1353 4.00668 35.734 4.00668 37.0317 4.75586ZM39.1286 1.12377C36.574 -0.351178 33.4357 -0.374226 30.8628 1.05463C30.8219 1.07731 30.7812 1.10036 30.7407 1.12377L7.69398 14.4298C5.09874 15.9282 3.5 18.6972 3.5 21.694V48.306C3.5 51.2793 5.07385 54.0286 7.63333 55.5349L7.69398 55.5702L30.7407 68.8762C33.3359 70.3746 36.5334 70.3746 39.1286 68.8762L62.1754 55.5702C64.7706 54.0718 66.3693 51.3028 66.3693 48.306V21.694C66.3693 18.6973 64.7706 15.9282 62.1754 14.4298L39.1286 1.12377ZM21.5953 27.2985V42.7015L34.9347 50.403L48.2741 42.7015V27.2985L34.9347 19.597L21.5953 27.2985Z" fill="url(#paint0_linear_525_4324)"/>
  <defs>
    <linearGradient id="paint0_linear_525_4324" x1="34.9347" y1="0" x2="34.9347" y2="70" gradientUnits="userSpaceOnUse">
      <stop stop-color="#3573E0"/>
      <stop offset="1" stop-color="#3D89BA"/>
    </linearGradient>
  </defs>
</svg>
