<svg xmlns="http://www.w3.org/2000/svg" width="70" height="70" viewBox="0 0 70 70" fill="none">
  <path fill-rule="evenodd" clip-rule="evenodd" d="M30.8014 41.7032L28.2983 44.1939L28.3018 44.1973L26.115 46.3733C25.7124 46.7739 25.7124 47.4234 26.115 47.824L26.1105 47.8285L30.9263 52.6205C33.5239 55.2054 31.6842 59.625 28.0106 59.625L4.1235 59.625C1.84617 59.625 1.11215e-05 57.7879 0 55.5219L3.38024e-05 31.7528C1.15555e-05 28.0973 4.44159 26.2666 7.03926 28.8515L11.7481 33.5341L11.7267 33.5554C12.1293 33.956 12.782 33.956 13.1846 33.5554L24.6493 22.1473L25.9303 20.8727C26.7355 20.0715 28.0409 20.0715 28.8461 20.8727C29.6512 21.6739 29.6513 22.9728 28.8461 23.774L27.5651 25.0487L16.2283 36.3295L16.1003 36.4568C14.0874 38.4598 10.8239 38.4598 8.81095 36.4568L8.83235 36.4355L4.1235 31.7528L4.12351 55.5219L28.0105 55.5219L22.8044 50.3414L22.8295 50.3163C21.1949 48.3022 21.3182 45.3437 23.1992 43.472L24.2887 42.3879L24.2853 42.3845L39.1976 27.5458L39.1986 27.5468L41.7017 25.0561L41.6982 25.0527L43.885 22.8767C44.2876 22.4761 44.2876 21.8266 43.885 21.426L43.8895 21.4215L39.0737 16.6295C36.4761 14.0446 38.3158 9.62502 41.9894 9.62503L65.8765 9.625C68.1538 9.62501 70 11.4621 70 13.7281L70 37.4972C70 41.1527 66.5878 44.0092 63.9902 41.4243L58.2519 35.7159L58.2733 35.6946C57.8707 35.294 57.218 35.294 56.8154 35.6946L45.3507 47.1027L44.0697 48.3773C43.2645 49.1785 41.9591 49.1785 41.1539 48.3773C40.3488 47.5761 40.3487 46.2772 41.1539 45.476L42.4349 44.2013L53.7717 32.9205L53.8997 32.7932C55.9126 30.7902 59.1761 30.7902 61.1891 32.7932L61.1677 32.8145L65.8765 37.4972L65.8765 13.7281L41.9895 13.7281L47.1956 18.9086L47.1705 18.9337C48.8051 20.9478 48.6818 23.9063 46.8008 25.778L45.7113 26.8621L45.7147 26.8655L30.8024 41.7042L30.8014 41.7032Z" fill="white"/>
</svg>
