<svg xmlns="http://www.w3.org/2000/svg" width="70" height="70" viewBox="0 0 70 70" fill="none">
  <path fill-rule="evenodd" clip-rule="evenodd" d="M32.1507 1.52136C33.8604 -0.507111 36.9849 -0.507125 38.6947 1.52135L64.5882 32.2422C65.9311 33.8355 65.9311 36.1645 64.5882 37.7578L38.6947 68.4786C36.9849 70.5071 33.8604 70.5071 32.1507 68.4786L6.25721 37.7578C4.91426 36.1645 4.91426 33.8355 6.25721 32.2422L32.1507 1.52136ZM37.5623 45.9841L57.6168 39.3891L37.5623 63.1823V45.9841ZM37.5623 41.4794L57.2654 35L37.5623 28.5205V41.4794ZM33.2831 28.5205V41.4794L13.58 35L33.2831 28.5205ZM37.5623 24.0159L57.6168 30.6109L37.5623 6.81767V24.0159ZM33.2831 6.81766V24.0159L13.2286 30.6109L33.2831 6.81766ZM33.2831 45.9841V63.1823L13.2286 39.3891L33.2831 45.9841Z" fill="url(#paint0_linear_525_4348)"/>
      <defs>
    <linearGradient id="paint0_linear_525_4348" x1="35" y1="9.625" x2="35" y2="59.625" gradientUnits="userSpaceOnUse">
      <stop stop-color="#4CB56F"/>
      <stop offset="1" stop-color="#53C949"/>
    </linearGradient>
  </defs>
</svg>
